<svg width="410" height="140" viewBox="0 0 410 140" fill="none" xmlns="http://www.w3.org/2000/svg">
<path d="M282.352 116C278.128 116 275.013 114.997 273.008 112.992C271.003 110.987 270 107.893 270 103.712V88.928H266.864C265.072 88.928 264.176 88.032 264.176 86.24C264.176 84.448 265.072 83.552 266.864 83.552H270V78.88C270 77.088 270.896 76.192 272.688 76.192C274.48 76.192 275.376 77.088 275.376 78.88V83.552H282.736C284.528 83.552 285.424 84.448 285.424 86.24C285.424 88.032 284.528 88.928 282.736 88.928H275.376V103.712C275.376 106.421 275.867 108.256 276.848 109.216C277.829 110.155 279.664 110.624 282.352 110.624C283.184 110.624 283.835 110.837 284.304 111.264C284.795 111.691 285.04 112.373 285.04 113.312C285.04 115.104 284.144 116 282.352 116ZM296.746 101.984V103.52C296.746 106.272 297.247 108.149 298.25 109.152C299.253 110.133 301.141 110.624 303.914 110.624H309.162C311.338 110.624 312.949 110.421 313.994 110.016C315.039 109.611 315.733 108.896 316.074 107.872C316.309 107.061 316.629 106.443 317.034 106.016C317.461 105.589 318.101 105.376 318.954 105.376C319.85 105.376 320.533 105.611 321.002 106.08C321.471 106.549 321.621 107.232 321.45 108.128C320.981 110.773 319.722 112.747 317.674 114.048C315.626 115.349 312.789 116 309.162 116H303.914C299.669 116 296.511 114.976 294.442 112.928C292.394 110.88 291.37 107.744 291.37 103.52V96.096C291.37 91.7653 292.394 88.5867 294.442 86.56C296.511 84.512 299.669 83.5093 303.914 83.552H309.162C313.429 83.552 316.586 84.576 318.634 86.624C320.682 88.6507 321.706 91.808 321.706 96.096V99.296C321.706 101.088 320.81 101.984 319.018 101.984H296.746ZM303.914 88.928C301.141 88.8853 299.253 89.3653 298.25 90.368C297.247 91.3707 296.746 93.28 296.746 96.096V96.608H316.33V96.096C316.33 93.3013 315.829 91.4133 314.826 90.432C313.845 89.4293 311.957 88.928 309.162 88.928H303.914ZM343.133 116C339.869 116 337.437 115.2 335.837 113.6C334.258 111.979 333.469 109.536 333.469 106.272V73.632C333.469 71.84 334.365 70.944 336.157 70.944C337.949 70.944 338.845 71.84 338.845 73.632V106.272C338.845 108 339.122 109.163 339.677 109.76C340.253 110.336 341.405 110.624 343.133 110.624C344.967 110.624 345.885 111.52 345.885 113.312C345.949 115.104 345.031 116 343.133 116ZM357.996 101.984V103.52C357.996 106.272 358.497 108.149 359.5 109.152C360.503 110.133 362.391 110.624 365.164 110.624H370.412C372.588 110.624 374.199 110.421 375.244 110.016C376.289 109.611 376.983 108.896 377.324 107.872C377.559 107.061 377.879 106.443 378.284 106.016C378.711 105.589 379.351 105.376 380.204 105.376C381.1 105.376 381.783 105.611 382.252 106.08C382.721 106.549 382.871 107.232 382.7 108.128C382.231 110.773 380.972 112.747 378.924 114.048C376.876 115.349 374.039 116 370.412 116H365.164C360.919 116 357.761 114.976 355.692 112.928C353.644 110.88 352.62 107.744 352.62 103.52V96.096C352.62 91.7653 353.644 88.5867 355.692 86.56C357.761 84.512 360.919 83.5093 365.164 83.552H370.412C374.679 83.552 377.836 84.576 379.884 86.624C381.932 88.6507 382.956 91.808 382.956 96.096V99.296C382.956 101.088 382.06 101.984 380.268 101.984H357.996ZM365.164 88.928C362.391 88.8853 360.503 89.3653 359.5 90.368C358.497 91.3707 357.996 93.28 357.996 96.096V96.608H377.58V96.096C377.58 93.3013 377.079 91.4133 376.076 90.432C375.095 89.4293 373.207 88.928 370.412 88.928H365.164Z" fill="white"/>
<path d="M35.648 115C34.752 115 34.08 114.776 33.632 114.328C33.184 113.88 32.96 113.208 32.96 112.312V77.048H20.544C19.648 77.048 18.976 76.824 18.528 76.376C18.08 75.928 17.856 75.256 17.856 74.36C17.856 73.464 18.08 72.792 18.528 72.344C18.976 71.896 19.648 71.672 20.544 71.672H50.752C51.648 71.672 52.32 71.896 52.768 72.344C53.216 72.792 53.44 73.464 53.44 74.36C53.44 75.256 53.216 75.928 52.768 76.376C52.32 76.824 51.648 77.048 50.752 77.048H38.336V112.312C38.336 113.165 38.1013 113.827 37.632 114.296C37.184 114.765 36.5227 115 35.648 115ZM58.746 100.984V102.52C58.746 105.272 59.2473 107.149 60.25 108.152C61.2527 109.133 63.1407 109.624 65.914 109.624H71.162C73.338 109.624 74.9487 109.421 75.994 109.016C77.0393 108.611 77.7327 107.896 78.074 106.872C78.3087 106.061 78.6287 105.443 79.034 105.016C79.4607 104.589 80.1007 104.376 80.954 104.376C81.85 104.376 82.5327 104.611 83.002 105.08C83.4713 105.549 83.6207 106.232 83.45 107.128C82.9807 109.773 81.722 111.747 79.674 113.048C77.626 114.349 74.7887 115 71.162 115H65.914C61.6687 115 58.5113 113.976 56.442 111.928C54.394 109.88 53.37 106.744 53.37 102.52V95.096C53.37 90.7653 54.394 87.5867 56.442 85.56C58.5113 83.512 61.6687 82.5093 65.914 82.552H71.162C75.4287 82.552 78.586 83.576 80.634 85.624C82.682 87.6507 83.706 90.808 83.706 95.096V98.296C83.706 100.088 82.81 100.984 81.018 100.984H58.746ZM65.914 87.928C63.1407 87.8853 61.2527 88.3653 60.25 89.368C59.2473 90.3707 58.746 92.28 58.746 95.096V95.608H78.33V95.096C78.33 92.3013 77.8287 90.4133 76.826 89.432C75.8447 88.4293 73.9567 87.928 71.162 87.928H65.914ZM105.133 115C101.869 115 99.4365 114.2 97.8365 112.6C96.2578 110.979 95.4685 108.536 95.4685 105.272V72.632C95.4685 70.84 96.3645 69.944 98.1565 69.944C99.9485 69.944 100.845 70.84 100.845 72.632V105.272C100.845 107 101.122 108.163 101.677 108.76C102.253 109.336 103.405 109.624 105.133 109.624C106.967 109.624 107.885 110.52 107.885 112.312C107.949 114.104 107.031 115 105.133 115ZM119.996 100.984V102.52C119.996 105.272 120.497 107.149 121.5 108.152C122.503 109.133 124.391 109.624 127.164 109.624H132.412C134.588 109.624 136.199 109.421 137.244 109.016C138.289 108.611 138.983 107.896 139.324 106.872C139.559 106.061 139.879 105.443 140.284 105.016C140.711 104.589 141.351 104.376 142.204 104.376C143.1 104.376 143.783 104.611 144.252 105.08C144.721 105.549 144.871 106.232 144.7 107.128C144.231 109.773 142.972 111.747 140.924 113.048C138.876 114.349 136.039 115 132.412 115H127.164C122.919 115 119.761 113.976 117.692 111.928C115.644 109.88 114.62 106.744 114.62 102.52V95.096C114.62 90.7653 115.644 87.5867 117.692 85.56C119.761 83.512 122.919 82.5093 127.164 82.552H132.412C136.679 82.552 139.836 83.576 141.884 85.624C143.932 87.6507 144.956 90.808 144.956 95.096V98.296C144.956 100.088 144.06 100.984 142.268 100.984H119.996ZM127.164 87.928C124.391 87.8853 122.503 88.3653 121.5 89.368C120.497 90.3707 119.996 92.28 119.996 95.096V95.608H139.58V95.096C139.58 92.3013 139.079 90.4133 138.076 89.432C137.095 88.4293 135.207 87.928 132.412 87.928H127.164Z" fill="white"/>
<path d="M261.723 35.8615C254.387 28.5256 245.678 22.7065 236.093 18.7364C226.509 14.7663 216.236 12.7229 205.861 12.7229C195.487 12.7229 185.214 14.7663 175.629 18.7364C166.045 22.7065 157.336 28.5256 150 35.8615" stroke="#D9D9D9" stroke-width="4"/>
<path d="M246.641 49.9723C241.162 44.4936 234.658 40.1477 227.5 37.1827C220.341 34.2177 212.669 32.6916 204.921 32.6916C197.173 32.6916 189.501 34.2177 182.343 37.1827C175.185 40.1477 168.681 44.4936 163.202 49.9723" stroke="#D9D9D9" stroke-width="4"/>
<circle cx="206" cy="91" r="29" stroke="#FE9043" stroke-width="22"/>
</svg>
